<svg xmlns="http://www.w3.org/2000/svg" xmlns:xlink="http://www.w3.org/1999/xlink" width="500" zoomAndPan="magnify" viewBox="0 0 375 374.999991" height="500" preserveAspectRatio="xMidYMid meet" version="1.0"><defs><g/><clipPath id="128866905c"><path d="M 37.5 37.5 L 337.5 37.5 L 337.5 337.5 L 37.5 337.5 Z M 37.5 37.5 " clip-rule="nonzero"/></clipPath><clipPath id="5f33dcaa73"><rect x="0" width="265" y="0" height="76"/></clipPath><clipPath id="ca16dae5c0"><path d="M 81.097656 97.757812 L 290.347656 97.757812 L 290.347656 181.757812 L 81.097656 181.757812 Z M 81.097656 97.757812 " clip-rule="nonzero"/></clipPath><clipPath id="d168cc9282"><path d="M 97.066406 108.707031 L 274.066406 108.707031 L 274.066406 173.207031 L 97.066406 173.207031 Z M 97.066406 108.707031 " clip-rule="nonzero"/></clipPath><clipPath id="d05f095131"><path d="M 182 156 L 228 156 L 228 181 L 182 181 Z M 182 156 " clip-rule="nonzero"/></clipPath><clipPath id="a7e6ed2c10"><path d="M 225.84375 154.253906 L 228.578125 159.59375 L 184.527344 182.167969 L 181.789062 176.828125 Z M 225.84375 154.253906 " clip-rule="nonzero"/></clipPath><clipPath id="e28c2c4cad"><path d="M 225.84375 154.253906 L 228.578125 159.59375 L 184.527344 182.167969 L 181.789062 176.828125 Z M 225.84375 154.253906 " clip-rule="nonzero"/></clipPath><clipPath id="dc6f54d814"><path d="M 159 161 L 188 161 L 188 181 L 159 181 Z M 159 161 " clip-rule="nonzero"/></clipPath><clipPath id="9cd9dded32"><path d="M 158.449219 163.609375 L 160.496094 160.46875 L 188.148438 178.484375 L 186.097656 181.625 Z M 158.449219 163.609375 " clip-rule="nonzero"/></clipPath><clipPath id="e541f349e4"><path d="M 158.449219 163.609375 L 160.496094 160.46875 L 188.148438 178.484375 L 186.097656 181.625 Z M 158.449219 163.609375 " clip-rule="nonzero"/></clipPath><clipPath id="541debf5d5"><path d="M 14 5 L 30 5 L 30 26.398438 L 14 26.398438 Z M 14 5 " clip-rule="nonzero"/></clipPath><clipPath id="df68dc4606"><rect x="0" width="64" y="0" height="27"/></clipPath></defs><g clip-path="url(#128866905c)"><path fill="#3a7bd5" d="M 82.847656 37.5 L 292.386719 37.5 C 304.863281 37.5 316.199219 42.601562 324.414062 50.8125 C 332.632812 59.03125 337.730469 70.371094 337.730469 82.847656 L 337.730469 292.386719 C 337.730469 304.863281 332.632812 316.199219 324.414062 324.414062 C 316.199219 332.632812 304.863281 337.730469 292.386719 337.730469 L 82.847656 337.730469 C 70.371094 337.730469 59.03125 332.632812 50.816406 324.414062 C 42.601562 316.199219 37.5 304.863281 37.5 292.386719 L 37.5 82.847656 C 37.5 70.371094 42.601562 59.03125 50.816406 50.8125 C 59.03125 42.601562 70.371094 37.5 82.847656 37.5 " fill-opacity="1" fill-rule="nonzero"/></g><g transform="matrix(1, 0, 0, 1, 52, 173)"><g clip-path="url(#5f33dcaa73)"><g fill="#ffffff" fill-opacity="1"><g transform="translate(1.030803, 60.485412)"><g><path d="M 25.203125 1.21875 C 22.097656 1.21875 19.222656 0.628906 16.578125 -0.546875 C 13.929688 -1.722656 11.613281 -3.347656 9.625 -5.421875 C 7.632812 -7.492188 6.082031 -9.894531 4.96875 -12.625 C 3.863281 -15.351562 3.3125 -18.285156 3.3125 -21.421875 C 3.3125 -24.566406 3.863281 -27.503906 4.96875 -30.234375 C 6.082031 -32.960938 7.632812 -35.363281 9.625 -37.4375 C 11.613281 -39.507812 13.929688 -41.132812 16.578125 -42.3125 C 19.222656 -43.488281 22.097656 -44.078125 25.203125 -44.078125 C 28.617188 -44.078125 31.710938 -43.414062 34.484375 -42.09375 C 37.265625 -40.78125 39.628906 -38.984375 41.578125 -36.703125 C 43.523438 -34.421875 44.914062 -31.796875 45.75 -28.828125 L 38.3125 -28.828125 C 37.195312 -31.597656 35.46875 -33.695312 33.125 -35.125 C 30.789062 -36.550781 28.164062 -37.265625 25.25 -37.265625 C 23.375 -37.265625 21.5625 -36.898438 19.8125 -36.171875 C 18.0625 -35.441406 16.484375 -34.390625 15.078125 -33.015625 C 13.679688 -31.648438 12.578125 -29.984375 11.765625 -28.015625 C 10.953125 -26.054688 10.546875 -23.859375 10.546875 -21.421875 C 10.546875 -18.960938 10.957031 -16.75 11.78125 -14.78125 C 12.613281 -12.820312 13.726562 -11.15625 15.125 -9.78125 C 16.519531 -8.414062 18.09375 -7.367188 19.84375 -6.640625 C 21.601562 -5.910156 23.40625 -5.546875 25.25 -5.546875 C 28.132812 -5.546875 30.753906 -6.28125 33.109375 -7.75 C 35.460938 -9.21875 37.195312 -11.425781 38.3125 -14.375 L 45.71875 -14.375 C 44.90625 -11.289062 43.53125 -8.578125 41.59375 -6.234375 C 39.664062 -3.898438 37.300781 -2.070312 34.5 -0.75 C 31.695312 0.5625 28.597656 1.21875 25.203125 1.21875 Z M 25.203125 1.21875 "/></g></g></g><g fill="#ffffff" fill-opacity="1"><g transform="translate(44.47568, 60.485412)"><g><path d="M 14.15625 0 L 6.9375 0 L 6.9375 -59.15625 L 14.15625 -59.15625 L 14.15625 -39.28125 L 14.03125 -34.703125 C 14.894531 -36.554688 16.082031 -38.1875 17.59375 -39.59375 C 19.113281 -41.007812 20.898438 -42.109375 22.953125 -42.890625 C 25.015625 -43.679688 27.25 -44.078125 29.65625 -44.078125 C 35.34375 -44.078125 39.65625 -42.316406 42.59375 -38.796875 C 45.539062 -35.285156 47.015625 -30.097656 47.015625 -23.234375 L 47.015625 0 L 39.78125 0 L 39.78125 -23.109375 C 39.78125 -28.035156 38.71875 -31.632812 36.59375 -33.90625 C 34.46875 -36.175781 31.539062 -37.3125 27.8125 -37.3125 C 26.019531 -37.3125 24.300781 -36.953125 22.65625 -36.234375 C 21.019531 -35.523438 19.566406 -34.507812 18.296875 -33.1875 C 17.023438 -31.875 16.015625 -30.3125 15.265625 -28.5 C 14.523438 -26.695312 14.15625 -24.703125 14.15625 -22.515625 Z M 14.15625 0 "/></g></g></g><g fill="#ffffff" fill-opacity="1"><g transform="translate(92.919568, 60.485412)"><g><path d="M 14.203125 0 L 6.9375 0 L 6.9375 -42.859375 L 13.90625 -42.859375 L 13.90625 -33.28125 C 14.96875 -36.25 16.625 -38.585938 18.875 -40.296875 C 21.132812 -42.003906 23.820312 -42.859375 26.9375 -42.859375 L 31.09375 -42.859375 L 31.09375 -36.515625 L 27.3125 -36.515625 C 24.820312 -36.515625 22.582031 -35.867188 20.59375 -34.578125 C 18.601562 -33.285156 17.039062 -31.421875 15.90625 -28.984375 C 14.769531 -26.546875 14.203125 -23.609375 14.203125 -20.171875 Z M 14.203125 0 "/></g></g></g><g fill="#ffffff" fill-opacity="1"><g transform="translate(120.527238, 60.485412)"><g><path d="M 25.59375 1.21875 C 22.425781 1.21875 19.488281 0.640625 16.78125 -0.515625 C 14.082031 -1.679688 11.722656 -3.300781 9.703125 -5.375 C 7.691406 -7.445312 6.125 -9.851562 5 -12.59375 C 3.875 -15.34375 3.3125 -18.285156 3.3125 -21.421875 C 3.3125 -24.566406 3.875 -27.503906 5 -30.234375 C 6.125 -32.960938 7.6875 -35.363281 9.6875 -37.4375 C 11.6875 -39.507812 14.035156 -41.132812 16.734375 -42.3125 C 19.441406 -43.488281 22.394531 -44.078125 25.59375 -44.078125 C 28.78125 -44.078125 31.734375 -43.492188 34.453125 -42.328125 C 37.171875 -41.171875 39.535156 -39.554688 41.546875 -37.484375 C 43.566406 -35.410156 45.132812 -33 46.25 -30.25 C 47.375 -27.507812 47.9375 -24.566406 47.9375 -21.421875 C 47.9375 -18.285156 47.375 -15.34375 46.25 -12.59375 C 45.132812 -9.851562 43.566406 -7.445312 41.546875 -5.375 C 39.535156 -3.300781 37.171875 -1.679688 34.453125 -0.515625 C 31.734375 0.640625 28.78125 1.21875 25.59375 1.21875 Z M 25.671875 -5.59375 C 27.796875 -5.59375 29.769531 -5.984375 31.59375 -6.765625 C 33.414062 -7.546875 35.007812 -8.648438 36.375 -10.078125 C 37.75 -11.503906 38.816406 -13.1875 39.578125 -15.125 C 40.335938 -17.0625 40.71875 -19.160156 40.71875 -21.421875 C 40.71875 -23.691406 40.335938 -25.785156 39.578125 -27.703125 C 38.816406 -29.628906 37.75 -31.304688 36.375 -32.734375 C 35.007812 -34.160156 33.414062 -35.269531 31.59375 -36.0625 C 29.769531 -36.863281 27.796875 -37.265625 25.671875 -37.265625 C 23.546875 -37.265625 21.5625 -36.863281 19.71875 -36.0625 C 17.882812 -35.269531 16.28125 -34.160156 14.90625 -32.734375 C 13.539062 -31.304688 12.472656 -29.628906 11.703125 -27.703125 C 10.929688 -25.785156 10.546875 -23.691406 10.546875 -21.421875 C 10.546875 -19.160156 10.929688 -17.0625 11.703125 -15.125 C 12.472656 -13.1875 13.539062 -11.503906 14.90625 -10.078125 C 16.28125 -8.648438 17.882812 -7.546875 19.71875 -6.765625 C 21.5625 -5.984375 23.546875 -5.59375 25.671875 -5.59375 Z M 25.671875 -5.59375 "/></g></g></g><g fill="#ffffff" fill-opacity="1"><g transform="translate(166.786684, 60.485412)"><g><path d="M 14.15625 0 L 6.9375 0 L 6.9375 -42.859375 L 13.859375 -42.859375 L 13.859375 -34.578125 C 14.671875 -36.421875 15.851562 -38.054688 17.40625 -39.484375 C 18.96875 -40.921875 20.796875 -42.046875 22.890625 -42.859375 C 24.992188 -43.671875 27.25 -44.078125 29.65625 -44.078125 C 35.34375 -44.078125 39.65625 -42.316406 42.59375 -38.796875 C 45.539062 -35.285156 47.015625 -30.097656 47.015625 -23.234375 L 47.015625 0 L 39.78125 0 L 39.78125 -23.109375 C 39.78125 -28.035156 38.71875 -31.632812 36.59375 -33.90625 C 34.46875 -36.175781 31.539062 -37.3125 27.8125 -37.3125 C 26.019531 -37.3125 24.300781 -36.972656 22.65625 -36.296875 C 21.019531 -35.628906 19.566406 -34.648438 18.296875 -33.359375 C 17.023438 -32.066406 16.015625 -30.507812 15.265625 -28.6875 C 14.523438 -26.875 14.15625 -24.816406 14.15625 -22.515625 Z M 14.15625 0 "/></g></g></g><g fill="#ffffff" fill-opacity="1"><g transform="translate(215.230572, 60.485412)"><g><path d="M 25.59375 1.21875 C 22.425781 1.21875 19.488281 0.640625 16.78125 -0.515625 C 14.082031 -1.679688 11.722656 -3.300781 9.703125 -5.375 C 7.691406 -7.445312 6.125 -9.851562 5 -12.59375 C 3.875 -15.34375 3.3125 -18.285156 3.3125 -21.421875 C 3.3125 -24.566406 3.875 -27.503906 5 -30.234375 C 6.125 -32.960938 7.6875 -35.363281 9.6875 -37.4375 C 11.6875 -39.507812 14.035156 -41.132812 16.734375 -42.3125 C 19.441406 -43.488281 22.394531 -44.078125 25.59375 -44.078125 C 28.78125 -44.078125 31.734375 -43.492188 34.453125 -42.328125 C 37.171875 -41.171875 39.535156 -39.554688 41.546875 -37.484375 C 43.566406 -35.410156 45.132812 -33 46.25 -30.25 C 47.375 -27.507812 47.9375 -24.566406 47.9375 -21.421875 C 47.9375 -18.285156 47.375 -15.34375 46.25 -12.59375 C 45.132812 -9.851562 43.566406 -7.445312 41.546875 -5.375 C 39.535156 -3.300781 37.171875 -1.679688 34.453125 -0.515625 C 31.734375 0.640625 28.78125 1.21875 25.59375 1.21875 Z M 25.671875 -5.59375 C 27.796875 -5.59375 29.769531 -5.984375 31.59375 -6.765625 C 33.414062 -7.546875 35.007812 -8.648438 36.375 -10.078125 C 37.75 -11.503906 38.816406 -13.1875 39.578125 -15.125 C 40.335938 -17.0625 40.71875 -19.160156 40.71875 -21.421875 C 40.71875 -23.691406 40.335938 -25.785156 39.578125 -27.703125 C 38.816406 -29.628906 37.75 -31.304688 36.375 -32.734375 C 35.007812 -34.160156 33.414062 -35.269531 31.59375 -36.0625 C 29.769531 -36.863281 27.796875 -37.265625 25.671875 -37.265625 C 23.546875 -37.265625 21.5625 -36.863281 19.71875 -36.0625 C 17.882812 -35.269531 16.28125 -34.160156 14.90625 -32.734375 C 13.539062 -31.304688 12.472656 -29.628906 11.703125 -27.703125 C 10.929688 -25.785156 10.546875 -23.691406 10.546875 -21.421875 C 10.546875 -19.160156 10.929688 -17.0625 11.703125 -15.125 C 12.472656 -13.1875 13.539062 -11.503906 14.90625 -10.078125 C 16.28125 -8.648438 17.882812 -7.546875 19.71875 -6.765625 C 21.5625 -5.984375 23.546875 -5.59375 25.671875 -5.59375 Z M 25.671875 -5.59375 "/></g></g></g></g></g><g clip-path="url(#ca16dae5c0)"><path fill="#58b368" d="M 185.773438 307.113281 C 128.054688 307.113281 81.097656 260.152344 81.097656 202.433594 C 81.097656 144.71875 128.054688 97.757812 185.773438 97.757812 C 243.492188 97.757812 290.453125 144.71875 290.453125 202.433594 C 290.453125 260.152344 243.492188 307.113281 185.773438 307.113281 Z M 185.773438 106.230469 C 132.726562 106.230469 89.570312 149.390625 89.570312 202.433594 C 89.570312 255.480469 132.726562 298.640625 185.773438 298.640625 C 238.820312 298.640625 281.976562 255.480469 281.976562 202.433594 C 281.976562 149.390625 238.820312 106.230469 185.773438 106.230469 Z M 185.773438 106.230469 " fill-opacity="1" fill-rule="nonzero"/></g><g clip-path="url(#d168cc9282)"><path fill="#ffffff" d="M 178.734375 275.167969 L 177.832031 283.734375 C 177.773438 284.316406 177.28125 284.746094 176.710938 284.746094 C 176.671875 284.746094 176.632812 284.746094 176.59375 284.742188 C 175.972656 284.675781 175.523438 284.121094 175.589844 283.5 L 176.488281 274.933594 C 176.554688 274.3125 177.117188 273.867188 177.726562 273.929688 C 178.347656 273.992188 178.796875 274.546875 178.730469 275.167969 Z M 169.773438 272.667969 C 169.164062 272.535156 168.566406 272.925781 168.4375 273.539062 L 166.644531 281.964844 C 166.515625 282.574219 166.90625 283.175781 167.515625 283.304688 C 167.59375 283.320312 167.671875 283.328125 167.75 283.328125 C 168.273438 283.328125 168.738281 282.964844 168.855469 282.433594 L 170.644531 274.007812 C 170.773438 273.398438 170.382812 272.796875 169.773438 272.667969 Z M 161.996094 270.582031 C 161.40625 270.390625 160.769531 270.714844 160.574219 271.308594 L 157.914062 279.5 C 157.71875 280.09375 158.042969 280.730469 158.636719 280.925781 C 158.753906 280.960938 158.871094 280.980469 158.984375 280.980469 C 159.460938 280.980469 159.902344 280.675781 160.058594 280.199219 L 162.722656 272.003906 C 162.914062 271.414062 162.589844 270.777344 161.996094 270.582031 Z M 154.476562 267.699219 C 153.90625 267.445312 153.238281 267.703125 152.988281 268.269531 L 149.484375 276.140625 C 149.230469 276.710938 149.484375 277.378906 150.054688 277.632812 C 150.203125 277.699219 150.359375 277.730469 150.511719 277.730469 C 150.945312 277.730469 151.359375 277.480469 151.542969 277.058594 L 155.046875 269.1875 C 155.300781 268.617188 155.046875 267.953125 154.476562 267.699219 Z M 140.546875 259.65625 C 140.042969 259.289062 139.335938 259.402344 138.972656 259.90625 L 133.90625 266.875 C 133.542969 267.378906 133.652344 268.085938 134.15625 268.453125 C 134.359375 268.597656 134.589844 268.667969 134.820312 268.667969 C 135.167969 268.667969 135.511719 268.507812 135.734375 268.203125 L 140.796875 261.230469 C 141.164062 260.726562 141.050781 260.023438 140.546875 259.65625 Z M 134.289062 254.585938 C 133.824219 254.171875 133.113281 254.207031 132.695312 254.671875 L 126.929688 261.074219 C 126.515625 261.535156 126.550781 262.25 127.015625 262.667969 C 127.230469 262.859375 127.5 262.957031 127.769531 262.957031 C 128.078125 262.957031 128.386719 262.832031 128.609375 262.582031 L 134.371094 256.179688 C 134.789062 255.71875 134.75 255.003906 134.289062 254.585938 Z M 128.59375 248.894531 C 128.175781 248.429688 127.460938 248.394531 127 248.808594 L 120.597656 254.574219 C 120.136719 254.992188 120.097656 255.707031 120.515625 256.167969 C 120.738281 256.417969 121.046875 256.542969 121.351562 256.542969 C 121.621094 256.542969 121.894531 256.445312 122.109375 256.253906 L 128.511719 250.488281 C 128.972656 250.070312 129.011719 249.355469 128.59375 248.894531 Z M 123.527344 242.632812 C 123.160156 242.132812 122.457031 242.019531 121.949219 242.382812 L 114.980469 247.449219 C 114.476562 247.816406 114.363281 248.519531 114.730469 249.023438 C 114.949219 249.328125 115.292969 249.488281 115.644531 249.488281 C 115.875 249.488281 116.105469 249.417969 116.304688 249.273438 L 123.277344 244.210938 C 123.78125 243.84375 123.894531 243.136719 123.527344 242.632812 Z M 115.484375 228.703125 C 115.234375 228.136719 114.566406 227.878906 113.996094 228.132812 L 106.125 231.636719 C 105.554688 231.890625 105.300781 232.558594 105.550781 233.125 C 105.738281 233.546875 106.152344 233.796875 106.585938 233.796875 C 106.738281 233.796875 106.894531 233.765625 107.042969 233.699219 L 114.914062 230.195312 C 115.480469 229.941406 115.738281 229.273438 115.484375 228.703125 Z M 112.597656 221.1875 C 112.402344 220.59375 111.765625 220.269531 111.175781 220.460938 L 102.984375 223.125 C 102.390625 223.316406 102.066406 223.953125 102.257812 224.546875 C 102.414062 225.023438 102.855469 225.328125 103.332031 225.328125 C 103.449219 225.328125 103.5625 225.308594 103.679688 225.269531 L 111.875 222.609375 C 112.464844 222.417969 112.792969 221.78125 112.597656 221.1875 Z M 110.515625 213.410156 C 110.382812 212.796875 109.78125 212.40625 109.175781 212.539062 L 100.75 214.332031 C 100.140625 214.460938 99.75 215.058594 99.878906 215.667969 C 99.992188 216.199219 100.460938 216.5625 100.984375 216.5625 C 101.058594 216.5625 101.140625 216.554688 101.21875 216.539062 L 109.644531 214.746094 C 110.253906 214.617188 110.644531 214.019531 110.515625 213.410156 Z M 109.253906 205.453125 C 109.191406 204.832031 108.621094 204.390625 108.015625 204.449219 L 99.445312 205.351562 C 98.828125 205.414062 98.378906 205.96875 98.441406 206.589844 C 98.503906 207.167969 98.992188 207.601562 99.5625 207.601562 C 99.601562 207.601562 99.644531 207.597656 99.683594 207.59375 L 108.25 206.695312 C 108.871094 206.628906 109.320312 206.074219 109.253906 205.453125 Z M 99.445312 189.472656 L 108.015625 190.371094 C 108.054688 190.375 108.09375 190.378906 108.132812 190.378906 C 108.703125 190.378906 109.195312 189.949219 109.253906 189.367188 C 109.320312 188.75 108.871094 188.195312 108.25 188.128906 L 99.683594 187.226562 C 99.078125 187.167969 98.507812 187.613281 98.441406 188.230469 C 98.375 188.851562 98.828125 189.40625 99.445312 189.472656 Z M 100.75 180.492188 L 109.175781 182.285156 C 109.253906 182.300781 109.332031 182.308594 109.410156 182.308594 C 109.933594 182.308594 110.402344 181.945312 110.515625 181.414062 C 110.644531 180.804688 110.253906 180.207031 109.644531 180.078125 L 101.21875 178.285156 C 100.613281 178.15625 100.007812 178.542969 99.878906 179.15625 C 99.75 179.765625 100.140625 180.363281 100.75 180.492188 Z M 102.984375 171.699219 L 111.179688 174.363281 C 111.292969 174.398438 111.410156 174.417969 111.527344 174.417969 C 112.003906 174.417969 112.445312 174.113281 112.597656 173.636719 C 112.792969 173.042969 112.46875 172.40625 111.875 172.214844 L 103.679688 169.550781 C 103.085938 169.363281 102.453125 169.683594 102.257812 170.277344 C 102.066406 170.871094 102.390625 171.507812 102.984375 171.699219 Z M 106.125 163.1875 L 113.996094 166.691406 C 114.144531 166.757812 114.300781 166.789062 114.453125 166.789062 C 114.886719 166.789062 115.296875 166.539062 115.484375 166.117188 C 115.738281 165.550781 115.480469 164.882812 114.914062 164.628906 L 107.042969 161.125 C 106.472656 160.875 105.804688 161.128906 105.550781 161.695312 C 105.300781 162.265625 105.554688 162.933594 106.125 163.1875 Z M 121.949219 152.4375 C 122.152344 152.582031 122.382812 152.652344 122.613281 152.652344 C 122.960938 152.652344 123.304688 152.492188 123.527344 152.1875 C 123.894531 151.683594 123.78125 150.976562 123.277344 150.613281 L 116.308594 145.546875 C 115.800781 145.179688 115.097656 145.292969 114.730469 145.796875 C 114.363281 146.300781 114.476562 147.007812 114.980469 147.375 Z M 127.003906 146.011719 C 127.21875 146.207031 127.488281 146.304688 127.757812 146.304688 C 128.066406 146.304688 128.375 146.175781 128.59375 145.929688 C 129.011719 145.46875 128.976562 144.753906 128.511719 144.335938 L 122.109375 138.570312 C 121.644531 138.15625 120.929688 138.191406 120.515625 138.65625 C 120.097656 139.117188 120.136719 139.832031 120.597656 140.25 Z M 132.695312 140.152344 C 132.917969 140.398438 133.226562 140.527344 133.535156 140.527344 C 133.804688 140.527344 134.074219 140.429688 134.289062 140.234375 C 134.753906 139.820312 134.789062 139.105469 134.375 138.640625 L 128.609375 132.238281 C 128.191406 131.777344 127.476562 131.738281 127.015625 132.15625 C 126.550781 132.574219 126.515625 133.285156 126.929688 133.75 Z M 138.972656 134.917969 C 139.191406 135.222656 139.535156 135.382812 139.886719 135.382812 C 140.117188 135.382812 140.347656 135.3125 140.546875 135.167969 C 141.050781 134.800781 141.164062 134.09375 140.796875 133.589844 L 135.734375 126.621094 C 135.367188 126.117188 134.660156 126.007812 134.15625 126.371094 C 133.652344 126.738281 133.539062 127.445312 133.90625 127.949219 Z M 151.542969 117.765625 C 151.292969 117.195312 150.625 116.941406 150.054688 117.191406 C 149.484375 117.445312 149.230469 118.113281 149.484375 118.683594 L 152.988281 126.554688 C 153.171875 126.972656 153.585938 127.222656 154.019531 127.222656 C 154.171875 127.222656 154.328125 127.191406 154.476562 127.125 C 155.046875 126.871094 155.300781 126.203125 155.046875 125.636719 Z M 160.058594 114.625 C 159.867188 114.03125 159.230469 113.707031 158.636719 113.898438 C 158.042969 114.09375 157.71875 114.726562 157.914062 115.320312 L 160.574219 123.515625 C 160.730469 123.992188 161.171875 124.296875 161.648438 124.296875 C 161.761719 124.296875 161.878906 124.277344 161.996094 124.238281 C 162.589844 124.046875 162.914062 123.410156 162.722656 122.816406 Z M 168.855469 112.390625 C 168.722656 111.78125 168.132812 111.390625 167.515625 111.519531 C 166.90625 111.648438 166.515625 112.25 166.644531 112.859375 L 168.4375 121.285156 C 168.550781 121.816406 169.019531 122.179688 169.539062 122.179688 C 169.617188 122.179688 169.695312 122.171875 169.773438 122.15625 C 170.382812 122.023438 170.773438 121.425781 170.644531 120.816406 Z M 176.59375 110.082031 C 175.972656 110.148438 175.523438 110.703125 175.589844 111.324219 L 176.488281 119.890625 C 176.550781 120.46875 177.039062 120.902344 177.609375 120.902344 C 177.648438 120.902344 177.6875 120.898438 177.730469 120.894531 C 178.347656 120.832031 178.796875 120.273438 178.734375 119.65625 L 177.832031 111.085938 C 177.765625 110.46875 177.199219 110.015625 176.59375 110.082031 Z M 194.949219 110.082031 C 194.328125 110.019531 193.773438 110.46875 193.710938 111.085938 L 192.808594 119.65625 C 192.742188 120.273438 193.195312 120.832031 193.8125 120.894531 C 193.851562 120.898438 193.890625 120.902344 193.933594 120.902344 C 194.503906 120.902344 194.992188 120.46875 195.054688 119.890625 L 195.953125 111.324219 C 196.019531 110.703125 195.570312 110.148438 194.949219 110.082031 Z M 204.027344 111.519531 C 203.417969 111.390625 202.820312 111.777344 202.6875 112.390625 L 200.898438 120.816406 C 200.769531 121.425781 201.15625 122.023438 201.765625 122.15625 C 201.847656 122.171875 201.925781 122.179688 202.003906 122.179688 C 202.523438 122.179688 202.992188 121.816406 203.105469 121.285156 L 204.898438 112.859375 C 205.027344 112.25 204.636719 111.648438 204.027344 111.519531 Z M 212.90625 113.898438 C 212.3125 113.707031 211.675781 114.03125 211.484375 114.625 L 208.820312 122.816406 C 208.628906 123.410156 208.953125 124.046875 209.546875 124.238281 C 209.664062 124.277344 209.78125 124.296875 209.894531 124.296875 C 210.371094 124.296875 210.8125 123.992188 210.96875 123.515625 L 213.628906 115.320312 C 213.824219 114.726562 213.5 114.09375 212.90625 113.898438 Z M 217.0625 127.125 C 217.214844 127.191406 217.367188 127.222656 217.523438 127.222656 C 217.953125 127.222656 218.367188 126.972656 218.554688 126.554688 L 222.058594 118.683594 C 222.3125 118.113281 222.054688 117.445312 221.484375 117.191406 C 220.914062 116.941406 220.25 117.195312 219.996094 117.765625 L 216.492188 125.636719 C 216.238281 126.203125 216.496094 126.871094 217.0625 127.125 Z M 230.992188 135.167969 C 231.195312 135.3125 231.425781 135.382812 231.65625 135.382812 C 232.003906 135.382812 232.347656 135.222656 232.570312 134.917969 L 237.632812 127.949219 C 238 127.441406 237.886719 126.738281 237.382812 126.371094 C 236.878906 126.003906 236.171875 126.117188 235.808594 126.621094 L 230.746094 133.589844 C 230.378906 134.09375 230.492188 134.800781 230.992188 135.167969 Z M 237.253906 140.234375 C 237.46875 140.429688 237.738281 140.523438 238.007812 140.523438 C 238.316406 140.523438 238.625 140.398438 238.84375 140.152344 L 244.609375 133.75 C 245.027344 133.285156 244.988281 132.570312 244.527344 132.15625 C 244.0625 131.738281 243.351562 131.777344 242.933594 132.238281 L 237.167969 138.640625 C 236.75 139.105469 236.789062 139.820312 237.253906 140.234375 Z M 242.945312 145.929688 C 243.167969 146.179688 243.476562 146.304688 243.785156 146.304688 C 244.054688 146.304688 244.324219 146.207031 244.539062 146.011719 L 250.941406 140.25 C 251.40625 139.832031 251.441406 139.117188 251.027344 138.65625 C 250.609375 138.191406 249.894531 138.152344 249.433594 138.570312 L 243.03125 144.335938 C 242.566406 144.753906 242.53125 145.46875 242.945312 145.929688 Z M 248.015625 152.1875 C 248.234375 152.492188 248.578125 152.652344 248.925781 152.652344 C 249.15625 152.652344 249.390625 152.585938 249.589844 152.4375 L 256.5625 147.375 C 257.0625 147.007812 257.175781 146.300781 256.808594 145.796875 C 256.445312 145.296875 255.742188 145.179688 255.234375 145.546875 L 248.261719 150.613281 C 247.757812 150.980469 247.648438 151.683594 248.015625 152.1875 Z M 256.058594 166.117188 C 256.242188 166.539062 256.65625 166.789062 257.089844 166.789062 C 257.242188 166.789062 257.398438 166.757812 257.546875 166.691406 L 265.417969 163.1875 C 265.988281 162.933594 266.242188 162.265625 265.988281 161.695312 C 265.738281 161.128906 265.070312 160.871094 264.5 161.125 L 256.628906 164.628906 C 256.058594 164.882812 255.804688 165.550781 256.058594 166.117188 Z M 258.941406 173.636719 C 259.097656 174.113281 259.539062 174.417969 260.015625 174.417969 C 260.132812 174.417969 260.25 174.398438 260.363281 174.363281 L 268.558594 171.699219 C 269.152344 171.507812 269.476562 170.871094 269.28125 170.277344 C 269.089844 169.683594 268.449219 169.363281 267.863281 169.554688 L 259.667969 172.214844 C 259.074219 172.40625 258.75 173.042969 258.941406 173.636719 Z M 261.027344 181.417969 C 261.140625 181.945312 261.609375 182.308594 262.128906 182.308594 C 262.207031 182.308594 262.285156 182.300781 262.367188 182.285156 L 270.792969 180.492188 C 271.402344 180.363281 271.792969 179.765625 271.664062 179.15625 C 271.535156 178.546875 270.941406 178.15625 270.324219 178.285156 L 261.898438 180.078125 C 261.285156 180.207031 260.898438 180.804688 261.027344 181.417969 Z M 262.289062 189.371094 C 262.347656 189.949219 262.835938 190.378906 263.410156 190.378906 C 263.449219 190.378906 263.488281 190.378906 263.527344 190.375 L 272.097656 189.472656 C 272.714844 189.410156 273.164062 188.851562 273.101562 188.234375 C 273.035156 187.613281 272.46875 187.167969 271.859375 187.230469 L 263.292969 188.128906 C 262.671875 188.195312 262.222656 188.75 262.289062 189.371094 Z M 272.09375 205.351562 L 263.527344 204.449219 C 262.90625 204.390625 262.351562 204.835938 262.285156 205.453125 C 262.21875 206.074219 262.671875 206.628906 263.289062 206.695312 L 271.859375 207.59375 C 271.898438 207.597656 271.9375 207.601562 271.976562 207.601562 C 272.550781 207.601562 273.039062 207.171875 273.097656 206.589844 C 273.164062 205.972656 272.714844 205.414062 272.09375 205.351562 Z M 270.792969 214.332031 L 262.367188 212.539062 C 261.757812 212.410156 261.15625 212.796875 261.027344 213.410156 C 260.898438 214.019531 261.285156 214.617188 261.898438 214.746094 L 270.324219 216.539062 C 270.402344 216.554688 270.480469 216.5625 270.558594 216.5625 C 271.082031 216.5625 271.546875 216.199219 271.660156 215.667969 C 271.789062 215.058594 271.402344 214.460938 270.792969 214.332031 Z M 268.558594 223.125 L 260.363281 220.460938 C 259.773438 220.269531 259.132812 220.59375 258.941406 221.1875 C 258.75 221.78125 259.074219 222.417969 259.667969 222.609375 L 267.859375 225.273438 C 267.976562 225.308594 268.09375 225.328125 268.207031 225.328125 C 268.683594 225.328125 269.125 225.023438 269.28125 224.546875 C 269.476562 223.953125 269.148438 223.316406 268.558594 223.125 Z M 265.417969 231.636719 L 257.546875 228.132812 C 256.976562 227.878906 256.308594 228.136719 256.058594 228.703125 C 255.804688 229.273438 256.058594 229.941406 256.628906 230.195312 L 264.5 233.699219 C 264.648438 233.765625 264.804688 233.796875 264.957031 233.796875 C 265.390625 233.796875 265.804688 233.546875 265.988281 233.125 C 266.242188 232.558594 265.988281 231.890625 265.417969 231.636719 Z M 249.589844 242.386719 C 249.085938 242.019531 248.382812 242.128906 248.015625 242.636719 C 247.648438 243.140625 247.761719 243.84375 248.265625 244.210938 L 255.234375 249.273438 C 255.433594 249.421875 255.667969 249.492188 255.894531 249.492188 C 256.246094 249.492188 256.589844 249.328125 256.808594 249.027344 C 257.175781 248.519531 257.0625 247.816406 256.5625 247.449219 Z M 244.539062 248.808594 C 244.078125 248.394531 243.363281 248.429688 242.945312 248.894531 C 242.53125 249.355469 242.566406 250.070312 243.03125 250.488281 L 249.433594 256.25 C 249.648438 256.445312 249.917969 256.542969 250.1875 256.542969 C 250.496094 256.542969 250.804688 256.414062 251.027344 256.167969 C 251.441406 255.703125 251.40625 254.992188 250.941406 254.574219 Z M 238.84375 254.671875 C 238.429688 254.207031 237.710938 254.171875 237.253906 254.589844 C 236.789062 255.003906 236.75 255.71875 237.167969 256.179688 L 242.933594 262.585938 C 243.15625 262.832031 243.464844 262.957031 243.773438 262.957031 C 244.042969 262.957031 244.3125 262.863281 244.527344 262.667969 C 244.988281 262.25 245.027344 261.539062 244.609375 261.074219 Z M 232.570312 259.90625 C 232.203125 259.402344 231.5 259.289062 230.992188 259.65625 C 230.492188 260.023438 230.378906 260.726562 230.746094 261.230469 L 235.808594 268.203125 C 236.03125 268.503906 236.375 268.667969 236.722656 268.667969 C 236.953125 268.667969 237.183594 268.597656 237.386719 268.453125 C 237.890625 268.085938 238 267.378906 237.632812 266.875 Z M 218.554688 268.269531 C 218.304688 267.703125 217.636719 267.445312 217.0625 267.699219 C 216.496094 267.953125 216.238281 268.621094 216.492188 269.1875 L 220 277.058594 C 220.183594 277.480469 220.597656 277.730469 221.03125 277.730469 C 221.183594 277.730469 221.339844 277.699219 221.488281 277.632812 C 222.058594 277.378906 222.3125 276.710938 222.058594 276.140625 Z M 210.96875 271.308594 C 210.773438 270.714844 210.144531 270.390625 209.542969 270.582031 C 208.953125 270.777344 208.628906 271.414062 208.820312 272.003906 L 211.484375 280.199219 C 211.640625 280.675781 212.082031 280.980469 212.558594 280.980469 C 212.671875 280.980469 212.789062 280.960938 212.90625 280.925781 C 213.5 280.730469 213.824219 280.09375 213.628906 279.5 Z M 203.105469 273.539062 C 202.972656 272.925781 202.367188 272.535156 201.765625 272.667969 C 201.15625 272.796875 200.769531 273.398438 200.898438 274.007812 L 202.6875 282.433594 C 202.800781 282.964844 203.269531 283.328125 203.792969 283.328125 C 203.871094 283.328125 203.949219 283.320312 204.027344 283.300781 C 204.636719 283.171875 205.027344 282.574219 204.898438 281.964844 Z M 193.8125 273.925781 C 193.191406 273.992188 192.742188 274.546875 192.808594 275.167969 L 193.710938 283.734375 C 193.769531 284.316406 194.257812 284.746094 194.832031 284.746094 C 194.871094 284.746094 194.910156 284.746094 194.949219 284.742188 C 195.570312 284.675781 196.019531 284.121094 195.953125 283.5 L 195.050781 274.933594 C 194.988281 274.3125 194.414062 273.867188 193.8125 273.929688 Z M 185.769531 264.246094 C 184.835938 264.246094 184.078125 265.003906 184.078125 265.9375 L 184.078125 284.425781 C 184.078125 285.359375 184.835938 286.117188 185.769531 286.117188 C 186.707031 286.117188 187.464844 285.359375 187.464844 284.425781 L 187.464844 265.9375 C 187.464844 265.003906 186.707031 264.246094 185.769531 264.246094 Z M 152.355469 255.292969 C 151.546875 254.824219 150.507812 255.101562 150.042969 255.910156 L 140.800781 271.921875 C 140.332031 272.730469 140.609375 273.765625 141.417969 274.234375 C 141.6875 274.386719 141.976562 274.460938 142.265625 274.460938 C 142.847656 274.460938 143.417969 274.15625 143.730469 273.613281 L 152.972656 257.601562 C 153.441406 256.792969 153.164062 255.757812 152.355469 255.292969 Z M 127.890625 230.828125 C 127.421875 230.019531 126.386719 229.742188 125.578125 230.210938 L 109.570312 239.453125 C 108.757812 239.921875 108.484375 240.957031 108.949219 241.765625 C 109.261719 242.308594 109.832031 242.613281 110.417969 242.613281 C 110.703125 242.613281 110.996094 242.539062 111.261719 242.382812 L 127.269531 233.140625 C 128.082031 232.675781 128.359375 231.636719 127.890625 230.828125 Z M 117.246094 199.105469 C 118.179688 199.105469 118.9375 198.347656 118.9375 197.410156 C 118.9375 196.476562 118.179688 195.71875 117.246094 195.71875 L 98.757812 195.71875 C 97.824219 195.71875 97.066406 196.476562 97.066406 197.410156 C 97.066406 198.347656 97.824219 199.105469 98.757812 199.105469 Z M 109.570312 155.371094 L 125.578125 164.613281 C 125.847656 164.769531 126.136719 164.839844 126.425781 164.839844 C 127.007812 164.839844 127.578125 164.539062 127.890625 163.996094 C 128.359375 163.183594 128.082031 162.148438 127.273438 161.683594 L 111.261719 152.441406 C 110.453125 151.972656 109.417969 152.25 108.949219 153.058594 C 108.480469 153.867188 108.757812 154.902344 109.570312 155.371094 Z M 150.042969 138.914062 C 150.355469 139.457031 150.925781 139.757812 151.507812 139.757812 C 151.796875 139.757812 152.085938 139.6875 152.355469 139.53125 C 153.164062 139.066406 153.441406 138.03125 152.972656 137.21875 L 143.730469 121.210938 C 143.261719 120.398438 142.226562 120.125 141.417969 120.589844 C 140.609375 121.058594 140.332031 122.09375 140.796875 122.902344 Z M 185.769531 108.707031 C 184.835938 108.707031 184.078125 109.464844 184.078125 110.398438 L 184.078125 128.886719 C 184.078125 129.820312 184.835938 130.578125 185.769531 130.578125 C 186.707031 130.578125 187.464844 129.820312 187.464844 128.886719 L 187.464844 110.398438 C 187.464844 109.464844 186.707031 108.707031 185.769531 108.707031 Z M 219.1875 139.53125 C 219.453125 139.6875 219.742188 139.757812 220.03125 139.757812 C 220.617188 139.757812 221.183594 139.457031 221.5 138.914062 L 230.742188 122.902344 C 231.207031 122.09375 230.933594 121.058594 230.121094 120.589844 C 229.3125 120.121094 228.277344 120.398438 227.808594 121.210938 L 218.566406 137.21875 C 218.101562 138.03125 218.375 139.066406 219.1875 139.53125 Z M 243.648438 163.996094 C 243.964844 164.539062 244.53125 164.839844 245.117188 164.839844 C 245.40625 164.839844 245.695312 164.769531 245.960938 164.613281 L 261.972656 155.371094 C 262.78125 154.902344 263.058594 153.867188 262.589844 153.058594 C 262.125 152.246094 261.085938 151.972656 260.277344 152.4375 L 244.269531 161.683594 C 243.460938 162.148438 243.183594 163.183594 243.648438 163.996094 Z M 272.785156 195.71875 L 254.296875 195.71875 C 253.363281 195.71875 252.605469 196.476562 252.605469 197.410156 C 252.605469 198.347656 253.363281 199.105469 254.296875 199.105469 L 272.785156 199.105469 C 273.71875 199.105469 274.476562 198.347656 274.476562 197.410156 C 274.476562 196.476562 273.71875 195.71875 272.785156 195.71875 Z M 261.972656 239.453125 L 245.960938 230.207031 C 245.15625 229.742188 244.117188 230.019531 243.648438 230.828125 C 243.183594 231.636719 243.460938 232.671875 244.269531 233.140625 L 260.277344 242.382812 C 260.546875 242.539062 260.835938 242.609375 261.125 242.609375 C 261.707031 242.609375 262.277344 242.308594 262.589844 241.765625 C 263.058594 240.953125 262.78125 239.917969 261.972656 239.453125 Z M 221.5 255.910156 C 221.03125 255.101562 219.996094 254.824219 219.1875 255.292969 C 218.378906 255.757812 218.101562 256.792969 218.570312 257.601562 L 227.8125 273.613281 C 228.125 274.15625 228.695312 274.460938 229.277344 274.460938 C 229.566406 274.460938 229.855469 274.386719 230.125 274.230469 C 230.933594 273.765625 231.210938 272.730469 230.742188 271.921875 Z M 221.5 255.910156 " fill-opacity="1" fill-rule="nonzero"/></g><g clip-path="url(#d05f095131)"><g clip-path="url(#a7e6ed2c10)"><g clip-path="url(#e28c2c4cad)"><path fill="#58b368" d="M 227.105469 157.0625 L 187.355469 180.515625 C 185.972656 181.328125 184.191406 180.871094 183.378906 179.488281 C 182.5625 178.109375 183.019531 176.328125 184.402344 175.511719 C 184.5 175.457031 184.609375 175.398438 184.710938 175.355469 L 226.964844 156.785156 C 227.042969 156.75 227.136719 156.789062 227.167969 156.867188 C 227.203125 156.941406 227.171875 157.023438 227.105469 157.0625 " fill-opacity="1" fill-rule="nonzero"/></g></g></g><g clip-path="url(#dc6f54d814)"><g clip-path="url(#9cd9dded32)"><g clip-path="url(#e541f349e4)"><path fill="#58b368" d="M 159.648438 161.964844 L 186.160156 177.074219 C 187.082031 177.597656 187.402344 178.773438 186.878906 179.695312 C 186.355469 180.613281 185.179688 180.9375 184.261719 180.410156 C 184.195312 180.375 184.125 180.328125 184.070312 180.285156 L 159.535156 162.136719 C 159.488281 162.101562 159.480469 162.039062 159.511719 161.992188 C 159.546875 161.949219 159.601562 161.9375 159.648438 161.964844 " fill-opacity="1" fill-rule="nonzero"/></g></g></g><g transform="matrix(1, 0, 0, 1, 253, 234)"><g clip-path="url(#df68dc4606)"><g fill="#ffffff" fill-opacity="1"><g transform="translate(1.065389, 20.896044)"><g><path d="M 7.59375 0.4375 C 6.519531 0.4375 5.582031 0.289062 4.78125 0 C 3.976562 -0.28125 3.3125 -0.660156 2.78125 -1.140625 C 2.25 -1.628906 1.847656 -2.179688 1.578125 -2.796875 C 1.316406 -3.421875 1.1875 -4.054688 1.1875 -4.703125 L 3.6875 -4.6875 C 3.695312 -4.132812 3.851562 -3.628906 4.15625 -3.171875 C 4.457031 -2.710938 4.898438 -2.347656 5.484375 -2.078125 C 6.066406 -1.804688 6.78125 -1.671875 7.625 -1.671875 C 8.78125 -1.671875 9.65625 -1.894531 10.25 -2.34375 C 10.84375 -2.800781 11.140625 -3.414062 11.140625 -4.1875 C 11.140625 -4.757812 10.984375 -5.207031 10.671875 -5.53125 C 10.359375 -5.863281 9.914062 -6.113281 9.34375 -6.28125 C 8.769531 -6.457031 8.082031 -6.613281 7.28125 -6.75 C 6.5625 -6.851562 5.878906 -7.003906 5.234375 -7.203125 C 4.585938 -7.398438 4.015625 -7.664062 3.515625 -8 C 3.015625 -8.34375 2.617188 -8.78125 2.328125 -9.3125 C 2.046875 -9.84375 1.90625 -10.492188 1.90625 -11.265625 C 1.90625 -12.109375 2.109375 -12.867188 2.515625 -13.546875 C 2.921875 -14.222656 3.53125 -14.757812 4.34375 -15.15625 C 5.164062 -15.5625 6.179688 -15.765625 7.390625 -15.765625 C 8.578125 -15.765625 9.609375 -15.566406 10.484375 -15.171875 C 11.367188 -14.773438 12.054688 -14.226562 12.546875 -13.53125 C 13.035156 -12.84375 13.28125 -12.054688 13.28125 -11.171875 L 10.75 -11.171875 C 10.707031 -11.898438 10.390625 -12.488281 9.796875 -12.9375 C 9.210938 -13.382812 8.410156 -13.609375 7.390625 -13.609375 C 6.734375 -13.609375 6.1875 -13.503906 5.75 -13.296875 C 5.320312 -13.085938 5 -12.8125 4.78125 -12.46875 C 4.570312 -12.125 4.46875 -11.742188 4.46875 -11.328125 C 4.46875 -10.847656 4.570312 -10.453125 4.78125 -10.140625 C 5 -9.828125 5.375 -9.570312 5.90625 -9.375 C 6.445312 -9.1875 7.191406 -9.015625 8.140625 -8.859375 C 8.847656 -8.742188 9.535156 -8.597656 10.203125 -8.421875 C 10.878906 -8.242188 11.484375 -7.992188 12.015625 -7.671875 C 12.554688 -7.359375 12.984375 -6.929688 13.296875 -6.390625 C 13.609375 -5.847656 13.765625 -5.160156 13.765625 -4.328125 C 13.765625 -3.285156 13.503906 -2.40625 12.984375 -1.6875 C 12.460938 -0.976562 11.738281 -0.445312 10.8125 -0.09375 C 9.882812 0.257812 8.8125 0.4375 7.59375 0.4375 Z M 7.59375 0.4375 "/></g></g></g><g clip-path="url(#541debf5d5)"><g fill="#ffffff" fill-opacity="1"><g transform="translate(14.097874, 20.896044)"><g><path d="M 3.296875 5.234375 L 0.765625 5.234375 L 0.765625 3.046875 L 3.3125 3.046875 C 3.925781 3.046875 4.421875 2.9375 4.796875 2.71875 C 5.179688 2.5 5.503906 2.160156 5.765625 1.703125 C 6.035156 1.242188 6.300781 0.671875 6.5625 -0.015625 L 6.734375 -0.453125 L 0.640625 -15.328125 L 3.390625 -15.328125 L 7.734375 -4.5 L 8.09375 -3.140625 L 8.484375 -4.484375 L 12.8125 -15.3125 L 15.5625 -15.328125 L 9.515625 -0.421875 C 9.085938 0.660156 8.675781 1.5625 8.28125 2.28125 C 7.882812 3.007812 7.457031 3.585938 7 4.015625 C 6.550781 4.453125 6.023438 4.765625 5.421875 4.953125 C 4.828125 5.140625 4.117188 5.234375 3.296875 5.234375 Z M 3.296875 5.234375 "/></g></g></g></g><g fill="#ffffff" fill-opacity="1"><g transform="translate(28.062091, 20.896044)"><g><path d="M 5.0625 0 L 2.484375 0 L 2.484375 -15.328125 L 4.953125 -15.328125 L 4.953125 -12.375 C 5.242188 -13.03125 5.664062 -13.613281 6.21875 -14.125 C 6.78125 -14.632812 7.4375 -15.035156 8.1875 -15.328125 C 8.9375 -15.617188 9.742188 -15.765625 10.609375 -15.765625 C 12.640625 -15.765625 14.179688 -15.132812 15.234375 -13.875 C 16.285156 -12.625 16.8125 -10.769531 16.8125 -8.3125 L 16.8125 0 L 14.234375 0 L 14.234375 -8.265625 C 14.234375 -10.023438 13.851562 -11.3125 13.09375 -12.125 C 12.332031 -12.9375 11.285156 -13.34375 9.953125 -13.34375 C 9.304688 -13.34375 8.691406 -13.222656 8.109375 -12.984375 C 7.523438 -12.742188 7.003906 -12.394531 6.546875 -11.9375 C 6.085938 -11.476562 5.722656 -10.921875 5.453125 -10.265625 C 5.191406 -9.609375 5.0625 -8.875 5.0625 -8.0625 Z M 5.0625 0 "/></g></g></g><g fill="#ffffff" fill-opacity="1"><g transform="translate(45.39257, 20.896044)"><g><path d="M 9.015625 0.4375 C 7.898438 0.4375 6.867188 0.226562 5.921875 -0.1875 C 4.984375 -0.613281 4.15625 -1.195312 3.4375 -1.9375 C 2.726562 -2.675781 2.175781 -3.535156 1.78125 -4.515625 C 1.382812 -5.492188 1.1875 -6.546875 1.1875 -7.671875 C 1.1875 -8.785156 1.382812 -9.832031 1.78125 -10.8125 C 2.175781 -11.789062 2.726562 -12.648438 3.4375 -13.390625 C 4.15625 -14.128906 4.984375 -14.707031 5.921875 -15.125 C 6.867188 -15.550781 7.898438 -15.765625 9.015625 -15.765625 C 10.242188 -15.765625 11.351562 -15.53125 12.34375 -15.0625 C 13.332031 -14.59375 14.175781 -13.945312 14.875 -13.125 C 15.570312 -12.3125 16.070312 -11.375 16.375 -10.3125 L 13.703125 -10.3125 C 13.304688 -11.300781 12.6875 -12.050781 11.84375 -12.5625 C 11.007812 -13.070312 10.070312 -13.328125 9.03125 -13.328125 C 8.363281 -13.328125 7.710938 -13.195312 7.078125 -12.9375 C 6.453125 -12.675781 5.890625 -12.300781 5.390625 -11.8125 C 4.890625 -11.320312 4.492188 -10.722656 4.203125 -10.015625 C 3.910156 -9.316406 3.765625 -8.535156 3.765625 -7.671875 C 3.765625 -6.785156 3.910156 -5.988281 4.203125 -5.28125 C 4.503906 -4.582031 4.90625 -3.988281 5.40625 -3.5 C 5.90625 -3.007812 6.46875 -2.632812 7.09375 -2.375 C 7.726562 -2.113281 8.375 -1.984375 9.03125 -1.984375 C 10.0625 -1.984375 11 -2.242188 11.84375 -2.765625 C 12.6875 -3.296875 13.304688 -4.085938 13.703125 -5.140625 L 16.359375 -5.140625 C 16.066406 -4.035156 15.570312 -3.066406 14.875 -2.234375 C 14.1875 -1.398438 13.34375 -0.742188 12.34375 -0.265625 C 11.34375 0.203125 10.234375 0.4375 9.015625 0.4375 Z M 9.015625 0.4375 "/></g></g></g></g></g></svg>